{
	"asset":{
		"generator":"Khronos glTF Blender I/O v3.6.10",
		"version":"2.0"
	},
	"extensionsUsed":[
		"KHR_materials_transmission",
		"KHR_materials_ior"
	],
	"scene":0,
	"scenes":[
		{
			"name":"Scene",
			"nodes":[
				0
			]
		}
	],
	"nodes":[
		{
			"mesh":0,
			"name":"Path",
			"rotation":[
				0.7071068286895752,
				0,
				0,
				0.7071068286895752
			]
		}
	],
	"materials":[
		{
			"doubleSided":true,
			"extensions":{
				"KHR_materials_transmission":{
					"transmissionFactor":0.30000001192092896
				},
				"KHR_materials_ior":{
					"ior":1.4500000476837158
				}
			},
			"name":"Gold - Texture",
			"pbrMetallicRoughness":{
				"metallicFactor":0.8500000238418579,
				"roughnessFactor":0.20000000298023224
			}
		}
	],
	"meshes":[
		{
			"name":"Path.001",
			"primitives":[
				{
					"attributes":{
						"POSITION":0
					},
					"indices":1,
					"material":0
				}
			]
		}
	],
	"accessors":[
		{
			"bufferView":0,
			"componentType":5126,
			"count":20650,
			"max":[
				0.1783081740140915,
				0.006000000052154064,
				-0.0051251789554953575
			],
			"min":[
				0.003921195864677429,
				-0.006000000052154064,
				-0.2107434868812561
			],
			"type":"VEC3"
		},
		{
			"bufferView":1,
			"componentType":5123,
			"count":106188,
			"type":"SCALAR"
		}
	],
	"bufferViews":[
		{
			"buffer":0,
			"byteLength":247800,
			"byteOffset":0,
			"target":34962
		},
		{
			"buffer":0,
			"byteLength":212376,
			"byteOffset":247800,
			"target":34963
		}
	],
	"buffers":[
		{
			"byteLength":460176,
			"uri":"data:application/octet-stream;base64,"
		}
	]
}
