<?xml version="1.0" encoding="UTF-8" ?>
<!DOCTYPE svg PUBLIC "-//W3C//DTD SVG 1.1//EN" "http://www.w3.org/Graphics/SVG/1.1/DTD/svg11.dtd">
<svg width="160pt" height="160pt" viewBox="0 0 160 160" version="1.1" xmlns="http://www.w3.org/2000/svg">
<g id="#6d6d6dff">
<path fill="#6d6d6d" opacity="1.00" d=" M 56.40 11.56 C 61.14 9.68 66.02 8.20 70.71 6.22 C 70.51 14.49 69.51 22.72 69.07 30.97 C 66.28 26.97 63.53 22.92 61.12 18.66 C 63.27 20.32 65.84 21.22 68.37 22.13 C 68.90 18.62 69.81 15.09 69.43 11.53 C 67.71 9.36 64.32 10.83 61.88 10.54 C 61.11 12.55 60.36 14.56 59.57 16.57 C 58.57 14.86 57.44 13.24 56.40 11.56 Z" />
<path fill="#6d6d6d" opacity="1.00" d=" M 111.16 32.21 C 115.15 25.09 119.11 17.94 123.26 10.91 C 126.81 15.85 130.00 21.03 133.26 26.16 C 125.92 28.28 118.55 30.29 111.16 32.21 M 121.57 17.44 C 119.71 20.39 116.73 23.48 117.66 27.27 C 121.34 28.07 126.06 27.65 128.44 24.39 C 129.15 21.65 126.88 19.51 125.54 17.40 C 124.22 17.41 122.89 17.43 121.57 17.44 Z" />
</g>
<g id="#727272ff">
<path fill="#727272" opacity="1.00" d=" M 88.12 6.37 C 92.88 8.14 97.79 9.47 102.63 10.99 C 98.35 17.63 93.97 24.20 89.56 30.75 C 88.92 22.64 88.16 14.52 88.12 6.37 M 90.77 10.73 C 88.24 13.75 90.56 17.72 91.37 20.97 C 94.91 20.61 97.51 17.41 97.84 13.99 C 98.34 10.42 93.19 8.04 90.77 10.73 Z" />
</g>
<g id="#8e8e8eff">
<path fill="#8e8e8e" opacity="1.00" d=" M 61.88 10.54 C 64.32 10.83 67.71 9.36 69.43 11.53 C 69.81 15.09 68.90 18.62 68.37 22.13 C 65.84 21.22 63.27 20.32 61.12 18.66 C 60.56 17.99 60.04 17.30 59.57 16.57 C 60.36 14.56 61.11 12.55 61.88 10.54 Z" />
</g>
<g id="#979797ff">
<path fill="#979797" opacity="1.00" d=" M 90.77 10.73 C 93.19 8.04 98.34 10.42 97.84 13.99 C 97.51 17.41 94.91 20.61 91.37 20.97 C 90.56 17.72 88.24 13.75 90.77 10.73 Z" />
</g>
<g id="#676767ff">
<path fill="#676767" opacity="1.00" d=" M 30.26 18.22 C 31.61 15.76 32.89 13.25 34.16 10.75 C 35.25 12.24 36.31 13.75 37.34 15.28 C 34.98 16.24 32.62 17.23 30.26 18.22 Z" />
<path fill="#676767" opacity="1.00" d=" M 26.18 26.58 C 27.50 23.94 28.80 21.28 30.30 18.73 C 30.43 21.25 30.57 23.76 30.71 26.28 C 33.72 27.09 36.76 28.53 39.93 28.18 C 41.23 27.04 42.07 25.50 43.06 24.11 C 44.68 26.67 46.33 29.21 47.99 31.75 C 40.68 30.18 33.38 28.58 26.18 26.58 Z" />
</g>
<g id="#8a8a8aff">
<path fill="#8a8a8a" opacity="1.00" d=" M 30.26 18.22 C 32.62 17.23 34.98 16.24 37.34 15.28 C 39.20 18.26 41.09 21.21 43.06 24.11 C 42.07 25.50 41.23 27.04 39.93 28.18 C 36.76 28.53 33.72 27.09 30.71 26.28 C 30.57 23.76 30.43 21.25 30.30 18.73 C 30.29 18.60 30.27 18.35 30.26 18.22 Z" />
</g>
<g id="#939393ff">
<path fill="#939393" opacity="1.00" d=" M 121.57 17.44 C 122.89 17.43 124.22 17.41 125.54 17.40 C 126.88 19.51 129.15 21.65 128.44 24.39 C 126.06 27.65 121.34 28.07 117.66 27.27 C 116.73 23.48 119.71 20.39 121.57 17.44 Z" />
</g>
<g id="#e5a010ff">
<path fill="#e5a010" opacity="1.00" d=" M 26.48 41.22 C 28.41 41.51 30.71 41.25 32.12 42.90 C 35.57 46.30 34.30 51.61 34.47 55.95 C 34.63 65.53 34.26 75.16 35.21 84.71 C 36.22 74.15 35.07 63.51 35.63 52.92 C 35.80 50.29 38.26 48.09 40.92 48.36 C 44.05 48.22 46.14 51.28 46.46 54.10 C 47.88 66.31 46.52 78.65 47.72 90.87 C 47.90 93.73 49.60 97.44 52.98 97.16 C 57.76 96.29 59.59 90.75 64.15 89.43 C 67.83 87.94 71.89 88.86 75.25 90.72 C 75.44 92.75 75.63 94.78 75.82 96.81 C 69.77 100.14 62.98 103.18 59.40 109.44 C 54.10 118.30 48.89 128.15 39.17 132.87 C 38.32 132.84 36.61 132.76 35.75 132.73 C 37.02 126.62 44.18 125.94 47.99 121.99 C 54.39 115.43 57.32 106.25 63.83 99.75 C 66.74 96.96 70.21 94.86 73.45 92.47 C 70.39 90.05 66.31 89.47 62.95 91.67 C 60.53 93.80 58.41 96.31 55.67 98.06 C 53.16 98.41 49.98 99.07 48.11 96.84 C 46.13 94.23 45.72 90.83 45.22 87.69 C 43.97 76.83 44.94 65.87 44.35 54.98 C 44.20 53.03 43.39 50.02 40.89 50.31 C 37.78 49.90 36.54 53.50 36.76 56.00 C 37.12 64.69 37.65 73.40 37.20 82.10 C 37.41 83.87 35.90 84.90 34.90 86.10 C 33.01 82.01 33.30 77.43 32.96 73.05 C 32.48 65.70 32.58 58.33 32.60 50.97 C 32.49 48.86 32.65 46.49 31.28 44.72 C 30.28 43.13 27.58 42.81 26.41 44.36 C 24.72 46.11 24.70 48.71 24.58 50.98 C 24.38 62.34 25.72 73.69 25.20 85.05 C 25.40 87.00 24.13 88.43 22.75 89.59 C 22.02 85.89 21.62 82.13 21.56 78.36 C 21.51 71.49 20.82 64.58 21.91 57.75 C 23.06 67.93 21.94 78.27 23.72 88.38 C 24.45 74.94 23.15 61.44 23.18 47.98 C 22.98 45.27 24.98 43.23 26.48 41.22 Z" />
</g>
<g id="#db8e05ff">
<path fill="#db8e05" opacity="1.00" d=" M 126.44 44.42 C 127.65 42.97 129.49 42.27 131.08 41.33 C 133.28 42.67 135.96 44.06 136.28 46.95 C 136.85 60.90 134.73 74.87 135.76 88.81 C 137.56 79.65 136.32 70.21 137.26 60.94 C 137.74 57.65 136.78 53.19 140.10 51.11 C 143.63 48.74 148.39 52.11 148.59 56.01 C 149.20 69.03 147.34 82.05 147.79 95.07 C 147.42 95.50 147.04 95.92 146.65 96.34 C 145.66 89.26 146.95 82.12 146.55 75.00 C 146.15 67.41 147.73 59.57 145.25 52.23 C 143.57 52.36 141.88 52.41 140.20 52.33 C 139.12 55.09 138.21 57.97 138.33 60.98 C 138.41 68.00 137.60 74.99 137.57 82.01 C 137.59 84.95 137.04 87.87 135.91 90.58 C 135.05 88.16 134.47 85.62 134.50 83.04 C 134.54 71.71 134.78 60.37 134.69 49.03 C 134.94 46.29 132.67 44.46 131.07 42.59 C 129.72 43.71 128.36 44.87 127.29 46.26 C 126.39 48.74 126.58 51.45 126.51 54.04 C 126.62 64.51 126.57 75.00 125.37 85.41 C 124.75 85.48 123.51 85.60 122.90 85.67 C 122.01 75.45 122.92 65.20 122.64 54.97 C 122.80 52.85 121.37 50.35 119.01 50.45 C 115.99 50.15 114.97 53.66 114.78 56.03 C 114.09 66.70 115.03 77.43 114.11 88.09 C 113.53 91.59 113.11 95.75 110.13 98.12 C 107.98 99.08 105.19 99.02 103.40 97.34 L 102.36 95.94 C 104.18 96.68 106.04 97.90 108.09 97.53 C 111.51 96.10 111.68 92.01 112.04 88.84 C 112.75 78.48 112.19 68.08 112.58 57.71 C 112.87 54.82 113.24 51.34 115.88 49.59 C 118.77 47.56 123.51 49.48 123.79 53.12 C 124.50 63.82 123.10 74.59 124.21 85.28 C 125.11 74.21 124.53 63.09 124.83 52.00 C 125.00 49.45 124.95 46.63 126.44 44.42 Z" />
</g>
<g id="#ffca3dff">
<path fill="#ffca3d" opacity="1.00" d=" M 26.41 44.36 C 27.58 42.81 30.28 43.13 31.28 44.72 C 32.65 46.49 32.49 48.86 32.60 50.97 C 32.58 58.33 32.48 65.70 32.96 73.05 C 33.30 77.43 33.01 82.01 34.90 86.10 C 35.90 84.90 37.41 83.87 37.20 82.10 C 37.65 73.40 37.12 64.69 36.76 56.00 C 36.54 53.50 37.78 49.90 40.89 50.31 C 43.39 50.02 44.20 53.03 44.35 54.98 C 44.94 65.87 43.97 76.83 45.22 87.69 C 45.72 90.83 46.13 94.23 48.11 96.84 C 49.98 99.07 53.16 98.41 55.67 98.06 C 50.69 99.69 45.92 101.83 41.33 104.35 C 37.86 106.56 33.96 103.95 31.02 102.04 C 30.01 101.06 27.97 100.07 28.55 98.39 C 31.56 94.45 36.72 93.39 41.20 92.03 C 41.58 87.40 42.70 82.83 42.59 78.18 C 41.66 76.75 39.96 75.98 38.66 74.90 C 38.43 79.43 38.44 84.12 36.28 88.25 C 34.96 86.89 32.63 86.01 32.36 83.91 C 31.88 80.64 32.00 77.32 31.97 74.03 C 30.06 74.15 28.16 74.28 26.25 74.40 C 26.07 80.10 27.74 86.43 23.99 91.37 C 20.19 88.07 20.79 82.80 20.19 78.29 C 17.90 78.79 15.63 79.36 13.35 79.87 C 13.45 71.90 13.11 63.92 13.44 55.96 C 13.19 53.64 15.49 52.55 16.77 50.99 C 18.46 52.56 20.12 54.17 21.81 55.74 C 21.85 56.41 21.88 57.08 21.91 57.75 C 20.82 64.58 21.51 71.49 21.56 78.36 C 21.62 82.13 22.02 85.89 22.75 89.59 C 24.13 88.43 25.40 87.00 25.20 85.05 C 25.72 73.69 24.38 62.34 24.58 50.98 C 24.70 48.71 24.72 46.11 26.41 44.36 Z" />
</g>
<g id="#ffcc42ff">
<path fill="#ffcc42" opacity="1.00" d=" M 127.29 46.26 C 128.36 44.87 129.72 43.71 131.07 42.59 C 132.67 44.46 134.94 46.29 134.69 49.03 C 134.78 60.37 134.54 71.71 134.50 83.04 C 134.47 85.62 135.05 88.16 135.91 90.58 C 137.04 87.87 137.59 84.95 137.57 82.01 C 137.60 74.99 138.41 68.00 138.33 60.98 C 138.21 57.97 139.12 55.09 140.20 52.33 C 141.88 52.41 143.57 52.36 145.25 52.23 C 147.73 59.57 146.15 67.41 146.55 75.00 C 146.95 82.12 145.66 89.26 146.65 96.34 C 147.04 95.92 147.42 95.50 147.79 95.07 L 148.54 94.04 C 150.80 86.77 149.88 78.98 150.46 71.48 C 152.24 71.39 154.01 71.30 155.79 71.28 C 155.88 71.62 156.06 72.28 156.15 72.61 C 154.96 77.29 154.31 82.12 155.10 86.93 C 156.27 94.70 153.29 102.24 153.54 110.00 C 154.00 115.57 150.57 121.00 145.58 123.35 C 141.94 125.01 137.88 123.83 134.05 124.25 C 132.35 124.77 131.07 126.14 129.65 127.16 C 128.07 125.98 126.51 124.75 124.76 123.82 C 123.16 124.17 121.65 124.83 120.15 125.48 C 117.44 124.09 114.54 122.88 112.34 120.70 C 106.76 115.33 103.64 108.10 99.13 101.92 C 96.43 98.23 92.48 95.81 88.70 93.37 C 88.61 92.36 88.52 91.34 88.43 90.33 C 91.27 90.42 94.45 90.21 96.81 92.08 C 99.08 93.74 101.12 95.69 103.40 97.34 C 105.19 99.02 107.98 99.08 110.13 98.12 C 113.11 95.75 113.53 91.59 114.11 88.09 C 115.03 77.43 114.09 66.70 114.78 56.03 C 114.97 53.66 115.99 50.15 119.01 50.45 C 121.37 50.35 122.80 52.85 122.64 54.97 C 122.92 65.20 122.01 75.45 122.90 85.67 C 123.51 85.60 124.75 85.48 125.37 85.41 C 126.57 75.00 126.62 64.51 126.51 54.04 C 126.58 51.45 126.39 48.74 127.29 46.26 M 123.95 91.07 C 125.89 92.28 127.75 93.80 130.01 94.38 C 132.22 94.92 133.65 92.82 135.52 92.12 C 133.67 89.74 131.37 87.13 128.01 87.52 C 125.53 86.87 125.12 89.58 123.95 91.07 M 135.88 95.03 C 137.00 99.98 137.95 105.00 138.09 110.08 C 137.55 112.56 136.01 114.66 135.28 117.07 C 135.36 120.32 139.35 121.42 142.01 121.32 C 149.49 118.96 153.24 109.41 149.90 102.41 C 148.19 102.02 146.50 101.62 144.80 101.23 C 143.87 97.20 142.76 91.64 137.97 90.69 C 136.81 91.84 135.91 93.35 135.88 95.03 M 104.77 100.58 C 105.80 104.09 107.35 107.44 109.47 110.43 C 111.79 113.72 114.07 117.38 117.75 119.29 C 120.37 120.34 125.01 119.42 124.75 115.89 C 125.11 112.69 122.25 110.55 120.07 108.75 C 115.41 105.30 110.55 101.77 104.77 100.58 Z" />
</g>
<g id="#e5a211ff">
<path fill="#e5a211" opacity="1.00" d=" M 10.74 56.92 C 10.66 53.72 12.80 50.53 16.00 49.81 C 19.25 49.42 22.29 52.44 21.81 55.74 C 20.12 54.17 18.46 52.56 16.77 50.99 C 15.49 52.55 13.19 53.64 13.44 55.96 C 13.11 63.92 13.45 71.90 13.35 79.87 C 13.48 85.11 14.13 90.33 13.80 95.57 C 12.41 95.50 11.02 95.42 9.63 95.35 C 9.47 91.07 9.30 86.79 9.30 82.51 C 9.31 79.03 9.64 75.55 9.89 72.08 C 10.84 79.63 9.75 87.38 11.43 94.84 C 12.54 82.21 10.42 69.57 10.74 56.92 Z" />
<path fill="#e5a211" opacity="1.00" d=" M 1.72 71.56 C 3.29 68.19 8.41 67.72 9.84 71.49 C 8.04 71.21 6.26 70.83 4.48 70.45 C 2.06 76.00 2.71 82.11 2.60 88.00 C 2.52 95.36 3.29 102.69 4.07 109.99 C 4.53 114.32 5.98 118.74 9.22 121.78 C 12.76 125.42 18.04 126.22 22.11 129.00 C 24.01 130.47 23.23 132.92 22.64 134.83 C 20.79 134.26 18.93 133.69 17.14 132.96 C 10.01 130.12 5.18 123.31 3.62 115.94 C 0.32 101.40 1.16 86.34 1.72 71.56 Z" />
</g>
<g id="#cd7c0aff">
<path fill="#cd7c0a" opacity="1.00" d=" M 151.16 69.86 C 152.54 69.05 154.39 69.12 155.80 69.84 C 158.64 71.94 159.01 75.77 159.21 79.02 C 159.44 92.83 159.76 106.88 156.17 120.35 C 155.08 124.53 152.49 128.07 149.58 131.18 C 148.92 140.77 149.45 150.39 149.51 160.00 L 148.62 160.00 C 148.33 154.31 148.27 148.61 147.92 142.92 C 147.67 140.89 147.71 138.47 146.06 136.98 C 144.33 135.48 142.24 134.49 140.27 133.37 C 140.40 132.94 140.66 132.08 140.78 131.66 C 145.95 129.41 151.72 126.77 153.60 120.96 C 156.78 112.02 157.16 102.38 157.52 92.99 C 157.20 86.20 158.41 79.17 156.15 72.61 C 156.06 72.28 155.88 71.62 155.79 71.28 C 154.01 71.30 152.24 71.39 150.46 71.48 C 149.88 78.98 150.80 86.77 148.54 94.04 C 148.96 87.71 149.00 81.35 149.36 75.01 C 149.55 73.21 149.58 71.07 151.16 69.86 Z" />
<path fill="#cd7c0a" opacity="1.00" d=" M 82.72 92.95 C 88.00 86.54 98.79 88.87 102.36 95.94 L 103.40 97.34 C 101.12 95.69 99.08 93.74 96.81 92.08 C 94.45 90.21 91.27 90.42 88.43 90.33 C 86.10 91.43 84.73 93.61 83.78 95.92 C 89.05 98.83 94.64 101.67 98.40 106.53 C 102.67 112.06 105.40 118.65 110.04 123.91 C 112.93 127.16 116.91 129.14 120.08 132.07 C 119.71 132.36 118.97 132.94 118.60 133.23 C 114.21 130.69 110.51 127.15 106.98 123.55 C 104.25 119.72 101.83 115.67 99.59 111.54 C 97.60 107.72 94.11 105.03 90.49 102.88 C 87.76 101.14 84.95 99.57 82.09 98.06 C 82.27 96.35 82.45 94.65 82.72 92.95 Z" />
</g>
<g id="#f7bf33ff">
<path fill="#f7bf33" opacity="1.00" d=" M 2.60 88.00 C 2.71 82.11 2.06 76.00 4.48 70.45 C 6.26 70.83 8.04 71.21 9.84 71.49 L 9.89 72.08 C 9.64 75.55 9.31 79.03 9.30 82.51 C 8.34 82.61 7.38 82.72 6.42 82.82 C 5.40 90.90 8.21 98.89 6.86 106.93 C 5.94 113.22 9.76 119.99 15.69 122.30 C 20.84 123.27 25.94 120.86 31.13 121.40 C 35.43 121.42 40.43 123.13 44.12 120.12 C 50.69 114.76 53.86 106.60 58.91 99.99 C 61.32 96.77 64.62 94.41 67.85 92.10 C 66.22 91.96 64.58 91.82 62.95 91.67 C 66.31 89.47 70.39 90.05 73.45 92.47 C 70.21 94.86 66.74 96.96 63.83 99.75 C 57.32 106.25 54.39 115.43 47.99 121.99 C 44.18 125.94 37.02 126.62 35.75 132.73 C 37.63 135.40 40.14 137.79 41.11 140.98 C 41.33 147.23 40.05 153.44 40.07 159.70 C 38.50 159.54 36.92 159.40 35.33 159.38 C 35.25 154.07 36.09 148.36 33.73 143.40 C 32.63 140.29 27.62 140.62 26.68 143.69 C 24.82 148.72 25.06 154.21 24.65 159.48 C 21.31 159.37 17.99 159.08 14.67 158.82 C 15.17 153.57 15.41 148.30 15.59 143.02 C 15.84 141.26 15.64 139.29 16.68 137.75 C 18.49 136.44 20.64 135.76 22.64 134.83 C 23.23 132.92 24.01 130.47 22.11 129.00 C 18.04 126.22 12.76 125.42 9.22 121.78 C 5.98 118.74 4.53 114.32 4.07 109.99 C 3.29 102.69 2.52 95.36 2.60 88.00 Z" />
</g>
<g id="#bf6f11ff">
<path fill="#bf6f11" opacity="1.00" d=" M 0.23 87.01 C 0.35 81.85 -0.25 76.47 1.72 71.56 C 1.16 86.34 0.32 101.40 3.62 115.94 C 5.18 123.31 10.01 130.12 17.14 132.96 C 15.27 134.33 12.99 135.37 11.69 137.36 C 11.04 142.48 11.38 147.71 10.29 152.80 C 10.15 146.52 10.46 140.23 10.23 133.95 C 10.22 129.18 5.35 126.51 4.09 122.13 C 0.34 110.85 0.15 98.79 0.23 87.01 Z" />
</g>
<g id="#f5bd33ff">
<path fill="#f5bd33" opacity="1.00" d=" M 156.15 72.61 C 158.41 79.17 157.20 86.20 157.52 92.99 C 157.16 102.38 156.78 112.02 153.60 120.96 C 149.24 124.17 144.28 126.35 139.33 128.47 C 136.39 129.37 136.64 132.92 135.88 135.33 C 137.09 135.50 138.28 135.74 139.45 136.06 C 140.81 136.44 142.19 136.72 143.60 136.92 C 145.08 144.57 144.02 152.56 146.69 160.00 L 134.93 160.00 C 134.47 154.37 135.08 148.43 132.94 143.08 C 131.44 140.22 127.94 142.06 125.55 142.30 C 124.06 148.07 123.22 154.08 124.36 160.00 L 118.70 160.00 C 118.82 153.77 117.31 147.62 117.66 141.41 C 117.79 138.34 120.54 136.56 122.59 134.71 C 123.57 133.75 124.76 132.73 124.65 131.21 C 124.93 128.41 122.00 126.94 120.15 125.48 C 121.65 124.83 123.16 124.17 124.76 123.82 C 126.51 124.75 128.07 125.98 129.65 127.16 C 131.07 126.14 132.35 124.77 134.05 124.25 C 137.88 123.83 141.94 125.01 145.58 123.35 C 150.57 121.00 154.00 115.57 153.54 110.00 C 153.29 102.24 156.27 94.70 155.10 86.93 C 154.31 82.12 154.96 77.29 156.15 72.61 Z" />
</g>
<g id="#ffd04eff">
<path fill="#ffd04e" opacity="1.00" d=" M 26.25 74.40 C 28.16 74.28 30.06 74.15 31.97 74.03 C 32.00 77.32 31.88 80.64 32.36 83.91 C 32.63 86.01 34.96 86.89 36.28 88.25 C 38.44 84.12 38.43 79.43 38.66 74.90 C 39.96 75.98 41.66 76.75 42.59 78.18 C 42.70 82.83 41.58 87.40 41.20 92.03 C 36.72 93.39 31.56 94.45 28.55 98.39 C 27.97 100.07 30.01 101.06 31.02 102.04 C 33.96 103.95 37.86 106.56 41.33 104.35 C 45.92 101.83 50.69 99.69 55.67 98.06 C 58.41 96.31 60.53 93.80 62.95 91.67 C 64.58 91.82 66.22 91.96 67.85 92.10 C 64.62 94.41 61.32 96.77 58.91 99.99 C 53.86 106.60 50.69 114.76 44.12 120.12 C 40.43 123.13 35.43 121.42 31.13 121.40 C 25.94 120.86 20.84 123.27 15.69 122.30 C 9.76 119.99 5.94 113.22 6.86 106.93 C 8.21 98.89 5.40 90.90 6.42 82.82 C 7.38 82.72 8.34 82.61 9.30 82.51 C 9.30 86.79 9.47 91.07 9.63 95.35 C 11.02 95.42 12.41 95.50 13.80 95.57 C 14.13 90.33 13.48 85.11 13.35 79.87 C 15.63 79.36 17.90 78.79 20.19 78.29 C 20.79 82.80 20.19 88.07 23.99 91.37 C 27.74 86.43 26.07 80.10 26.25 74.40 M 45.07 104.30 C 41.45 106.82 37.26 109.06 35.02 113.03 C 33.91 114.77 35.10 116.73 35.51 118.49 C 38.40 118.49 41.92 119.61 44.19 117.21 C 49.22 112.37 52.32 105.96 55.67 99.92 C 51.82 100.50 48.23 102.06 45.07 104.30 M 15.40 119.55 C 18.49 120.87 21.80 117.49 20.69 114.40 C 19.11 109.23 14.03 106.33 10.84 102.23 C 6.97 107.77 9.03 116.89 15.40 119.55 Z" />
</g>
<g id="#ffd664ff">
<path fill="#ffd664" opacity="1.00" d=" M 123.95 91.07 C 125.12 89.58 125.53 86.87 128.01 87.52 C 131.37 87.13 133.67 89.74 135.52 92.12 C 133.65 92.82 132.22 94.92 130.01 94.38 C 127.75 93.80 125.89 92.28 123.95 91.07 Z" />
</g>
<g id="#bf7012ff">
<path fill="#bf7012" opacity="1.00" d=" M 75.25 90.72 C 76.96 92.64 78.47 95.10 77.80 97.79 C 73.82 100.67 68.86 101.92 65.04 105.08 C 60.82 108.10 59.02 113.13 56.32 117.34 C 53.46 122.29 49.78 126.66 46.29 131.14 C 45.09 140.68 45.62 150.41 46.15 160.00 L 42.85 160.00 L 41.03 159.79 C 42.21 159.31 43.40 158.84 44.58 158.36 C 44.37 152.28 45.05 146.15 44.12 140.12 C 43.67 137.07 41.39 134.81 39.17 132.87 C 48.89 128.15 54.10 118.30 59.40 109.44 C 62.98 103.18 69.77 100.14 75.82 96.81 C 75.63 94.78 75.44 92.75 75.25 90.72 Z" />
</g>
<g id="#ebad1bff">
<path fill="#ebad1b" opacity="1.00" d=" M 83.78 95.92 C 84.73 93.61 86.10 91.43 88.43 90.33 C 88.52 91.34 88.61 92.36 88.70 93.37 C 92.48 95.81 96.43 98.23 99.13 101.92 C 103.64 108.10 106.76 115.33 112.34 120.70 C 114.54 122.88 117.44 124.09 120.15 125.48 C 122.00 126.94 124.93 128.41 124.65 131.21 C 124.76 132.73 123.57 133.75 122.59 134.71 C 121.77 133.82 120.95 132.92 120.08 132.07 C 116.91 129.14 112.93 127.16 110.04 123.91 C 105.40 118.65 102.67 112.06 98.40 106.53 C 94.64 101.67 89.05 98.83 83.78 95.92 Z" />
</g>
<g id="#ffd55eff">
<path fill="#ffd55e" opacity="1.00" d=" M 135.88 95.03 C 135.91 93.35 136.81 91.84 137.97 90.69 C 142.76 91.64 143.87 97.20 144.80 101.23 C 146.50 101.62 148.19 102.02 149.90 102.41 C 153.24 109.41 149.49 118.96 142.01 121.32 C 139.35 121.42 135.36 120.32 135.28 117.07 C 136.01 114.66 137.55 112.56 138.09 110.08 C 137.95 105.00 137.00 99.98 135.88 95.03 Z" />
</g>
<g id="#8d4d06c6">
<path fill="#8d4d06" opacity="0.78" d=" M 81.65 98.33 C 80.80 96.51 81.94 94.58 82.72 92.95 C 82.45 94.65 82.27 96.35 82.09 98.06 C 84.95 99.57 87.76 101.14 90.49 102.88 C 87.54 101.40 84.13 100.61 81.65 98.33 Z" />
</g>
<g id="#ffd766ff">
<path fill="#ffd766" opacity="1.00" d=" M 45.07 104.30 C 48.23 102.06 51.82 100.50 55.67 99.92 C 52.32 105.96 49.22 112.37 44.19 117.21 C 41.92 119.61 38.40 118.49 35.51 118.49 C 35.10 116.73 33.91 114.77 35.02 113.03 C 37.26 109.06 41.45 106.82 45.07 104.30 Z" />
<path fill="#ffd766" opacity="1.00" d=" M 104.77 100.58 C 110.55 101.77 115.41 105.30 120.07 108.75 C 122.25 110.55 125.11 112.69 124.75 115.89 C 125.01 119.42 120.37 120.34 117.75 119.29 C 114.07 117.38 111.79 113.72 109.47 110.43 C 107.35 107.44 105.80 104.09 104.77 100.58 Z" />
<path fill="#ffd766" opacity="1.00" d=" M 15.40 119.55 C 9.03 116.89 6.97 107.77 10.84 102.23 C 14.03 106.33 19.11 109.23 20.69 114.40 C 21.80 117.49 18.49 120.87 15.40 119.55 Z" />
</g>
<g id="#e8a718ff">
<path fill="#e8a718" opacity="1.00" d=" M 139.33 128.47 C 144.28 126.35 149.24 124.17 153.60 120.96 C 151.72 126.77 145.95 129.41 140.78 131.66 C 140.66 132.08 140.40 132.94 140.27 133.37 C 139.99 134.26 139.72 135.16 139.45 136.06 C 138.28 135.74 137.09 135.50 135.88 135.33 C 136.64 132.92 136.39 129.37 139.33 128.47 Z" />
</g>
<g id="#b1640cee">
<path fill="#b1640c" opacity="0.93" d=" M 106.98 123.55 C 110.51 127.15 114.21 130.69 118.60 133.23 C 117.02 134.83 115.27 136.62 115.17 139.01 C 114.79 143.91 114.83 148.86 113.79 153.69 C 113.72 146.26 113.77 138.84 113.37 131.42 C 110.98 129.02 108.82 126.40 106.98 123.55 Z" />
</g>
<g id="#d99420ff">
<path fill="#d99420" opacity="1.00" d=" M 120.08 132.07 C 120.95 132.92 121.77 133.82 122.59 134.71 C 120.54 136.56 117.79 138.34 117.66 141.41 C 117.31 147.62 118.82 153.77 118.70 160.00 L 113.48 160.00 C 113.57 157.89 113.67 155.79 113.79 153.69 C 114.83 148.86 114.79 143.91 115.17 139.01 C 115.27 136.62 117.02 134.83 118.60 133.23 C 118.97 132.94 119.71 132.36 120.08 132.07 Z" />
</g>
<g id="#db9621ff">
<path fill="#db9621" opacity="1.00" d=" M 17.14 132.96 C 18.93 133.69 20.79 134.26 22.64 134.83 C 20.64 135.76 18.49 136.44 16.68 137.75 C 15.64 139.29 15.84 141.26 15.59 143.02 C 15.41 148.30 15.17 153.57 14.67 158.82 C 17.99 159.08 21.31 159.37 24.65 159.48 C 28.21 159.59 31.77 159.39 35.33 159.38 C 36.92 159.40 38.50 159.54 40.07 159.70 L 41.03 159.79 L 42.85 160.00 L 10.14 160.00 C 10.16 157.60 10.20 155.20 10.29 152.80 C 11.38 147.71 11.04 142.48 11.69 137.36 C 12.99 135.37 15.27 134.33 17.14 132.96 Z" />
</g>
<g id="#df9d26ff">
<path fill="#df9d26" opacity="1.00" d=" M 35.75 132.73 C 36.61 132.76 38.32 132.84 39.17 132.87 C 41.39 134.81 43.67 137.07 44.12 140.12 C 45.05 146.15 44.37 152.28 44.58 158.36 C 43.40 158.84 42.21 159.31 41.03 159.79 L 40.07 159.70 C 40.05 153.44 41.33 147.23 41.11 140.98 C 40.14 137.79 37.63 135.40 35.75 132.73 Z" />
</g>
<g id="#d8911eff">
<path fill="#d8911e" opacity="1.00" d=" M 139.45 136.06 C 139.72 135.16 139.99 134.26 140.27 133.37 C 142.24 134.49 144.33 135.48 146.06 136.98 C 147.71 138.47 147.67 140.89 147.92 142.92 C 148.27 148.61 148.33 154.31 148.62 160.00 L 146.69 160.00 C 144.02 152.56 145.08 144.57 143.60 136.92 C 142.19 136.72 140.81 136.44 139.45 136.06 Z" />
</g>
<g id="#fccd4fff">
<path fill="#fccd4f" opacity="1.00" d=" M 26.68 143.69 C 27.62 140.62 32.63 140.29 33.73 143.40 C 36.09 148.36 35.25 154.07 35.33 159.38 C 31.77 159.39 28.21 159.59 24.65 159.48 C 25.06 154.21 24.82 148.72 26.68 143.69 Z" />
</g>
<g id="#fccc4fff">
<path fill="#fccc4f" opacity="1.00" d=" M 125.55 142.30 C 127.94 142.06 131.44 140.22 132.94 143.08 C 135.08 148.43 134.47 154.37 134.93 160.00 L 124.36 160.00 C 123.22 154.08 124.06 148.07 125.55 142.30 Z" />
</g>
</svg>
