<?xml version="1.0" encoding="UTF-8"?>
<svg width="43px" height="40px" viewBox="0 0 43 40" version="1.1" xmlns="http://www.w3.org/2000/svg" xmlns:xlink="http://www.w3.org/1999/xlink">
    <title>Path</title>
    <g id="Page-1" stroke="none" stroke-width="1" fill="none" fill-rule="evenodd">
        <g id="OC_v2" transform="translate(-1417.000000, -5434.000000)" fill="#FFFFFF" fill-rule="nonzero">
            <g id="FOOTER" transform="translate(410.000000, 5048.000000)">
                <g id="CTA" transform="translate(0.000000, 344.000000)">
                    <path d="M1049.67356,42.2112247 C1049.41763,41.9943935 1049.06423,41.9397513 1048.7563,42.0693986 L1007.55098,59.3430989 C1007.21407,59.4857023 1006.99611,59.8215365 1007,60.1920036 C1007.00399,60.5624707 1007.22903,60.8934548 1007.5689,61.0286484 L1018.9129,65.4998093 C1019.1916,65.6100796 1019.50614,65.5718803 1019.75134,65.3979854 L1034.80024,54.5355554 C1035.18244,54.2550966 1035.71344,54.3234659 1036.01454,54.6919029 C1036.31564,55.0603399 1036.28367,55.6026213 1035.94144,55.9319977 L1023.4007,68.1963249 C1023.22553,68.3676869 1023.12658,68.6039878 1023.12659,68.8509072 L1023.12659,81.093415 C1023.12776,81.5030571 1023.39872,81.8613106 1023.78831,81.9683401 C1024.17791,82.0753696 1024.58992,81.9047373 1024.79451,81.5516227 L1030.4683,71.6874306 C1030.59143,71.4747028 1030.85885,71.3998044 1031.07205,71.5183302 L1041.50954,77.3368398 C1041.75736,77.4754678 1042.05516,77.4870924 1042.31275,77.3681937 C1042.57034,77.2492949 1042.75742,77.0138555 1042.81736,76.7331694 L1049.9835,43.0949109 C1050.0462,42.7650634 1049.92751,42.4266708 1049.67356,42.2112247 Z" id="Path"></path>
                </g>
            </g>
        </g>
    </g>
</svg>