<?xml version="1.0" encoding="UTF-8" standalone="no"?>
<svg
   width="49pt"
   height="19pt"
   viewBox="0 0 49 19"
   version="1.1"
   id="svg6"
   sodipodi:docname="view.svg"
   inkscape:version="1.3 (0e150ed, 2023-07-21)"
   xmlns:inkscape="http://www.inkscape.org/namespaces/inkscape"
   xmlns:sodipodi="http://sodipodi.sourceforge.net/DTD/sodipodi-0.dtd"
   xmlns="http://www.w3.org/2000/svg"
   xmlns:svg="http://www.w3.org/2000/svg">
  <defs
     id="defs6" />
  <sodipodi:namedview
     id="namedview6"
     pagecolor="#ffffff"
     bordercolor="#000000"
     borderopacity="0.25"
     inkscape:showpageshadow="2"
     inkscape:pageopacity="0.0"
     inkscape:pagecheckerboard="0"
     inkscape:deskcolor="#d1d1d1"
     inkscape:document-units="pt"
     inkscape:zoom="4.8443839"
     inkscape:cx="11.972627"
     inkscape:cy="4.6445534"
     inkscape:window-width="1712"
     inkscape:window-height="728"
     inkscape:window-x="0"
     inkscape:window-y="43"
     inkscape:window-maximized="0"
     inkscape:current-layer="svg6" />
  <g
     id="#ffffffff"
     transform="matrix(0.10037076,0,0,0.10037076,-1.1853793,-0.23248168)">
    <path
       fill="#ffffff"
       opacity="1"
       d="M 126.5,39.38 C 132.35,36.26 140.72,40.24 141.24,47.03 142.03,53.06 135.96,58.27 130.13,57.47 124.95,57.16 120.25,52.22 121.06,46.91 121.32,43.63 123.63,40.82 126.5,39.38 Z"
       id="path1" />
    <path
       fill="#ffffff"
       opacity="1"
       d="M 11.81,42.68 C 17.86,42.68 23.91,42.68 29.96,42.68 40.23,72.62 50.36,102.61 60.7,132.51 61.02,132.83 61.67,133.47 61.99,133.79 72.48,103.46 82.76,73.05 93.16,42.68 99.21,42.68 105.26,42.68 111.31,42.68 97.97,79.79 84.62,116.9 71.28,154 64.81,154 58.34,154 51.86,154 38.51,116.89 25.15,79.79 11.81,42.68 Z"
       id="path2" />
    <path
       fill="#ffffff"
       opacity="1"
       d="M 419.79,61.22 C 446.53,61.22 473.26,61.22 500,61.22 V 141.73 C 494.87,141.73 489.74,141.73 484.61,141.72 484.61,123.98 484.61,106.25 484.61,88.51 463.05,110.02 441.5,131.54 419.95,153.06 416.02,149.12 412.09,145.17 408.16,141.23 429.71,119.6 451.27,97.98 472.81,76.34 455.14,76.33 437.46,76.34 419.79,76.34 419.79,71.3 419.79,66.26 419.79,61.22 Z"
       id="path3" />
    <path
       fill="#ffffff"
       opacity="1"
       d="M 183.41,70.72 C 193,68.38 203.53,69.35 212.28,74.05 221.02,78.68 226.86,87.59 229.17,97.06 230.79,103.62 230.75,110.43 230.73,117.14 211,117.15 191.27,117.13 171.54,117.16 171.59,124.96 174.39,133.32 181.02,137.95 191.38,145.36 209.47,143.41 214.35,130.36 219.46,131.29 224.57,132.2 229.69,133.13 226.78,143.36 218.04,151.25 207.83,153.84 195.49,157.17 181.19,156.14 170.68,148.31 162.06,141.98 157.12,131.65 155.78,121.2 154.35,110.02 155.52,98.11 161.13,88.14 165.79,79.64 173.96,73.05 183.41,70.72 M 185.51,84.38 C 177.36,87.76 171.89,96.21 171.52,104.96 185.95,104.99 200.38,104.97 214.81,104.97 214.64,98.07 212.02,90.84 206.19,86.75 200.32,82.51 192.21,81.85 185.51,84.38 Z"
       id="path4" />
    <path
       fill="#ffffff"
       opacity="1"
       d="M 122.93,70.51 C 128.34,70.51 133.76,70.51 139.18,70.51 139.18,98.34 139.18,126.17 139.18,154 133.76,154 128.34,154 122.93,154 122.93,126.17 122.92,98.34 122.93,70.51 Z"
       id="path5" />
    <path
       fill="#ffffff"
       opacity="1"
       d="M 239.46,70.51 C 245.06,70.51 250.66,70.51 256.26,70.51 261.46,90.07 266.71,109.62 271.88,129.18 272.16,130.28 272.61,131.33 273.17,132.33 278.96,111.79 284.24,91.11 289.84,70.51 295.44,70.52 301.05,70.5 306.65,70.52 311.74,89.7 316.92,108.85 321.98,128.03 322.33,129.43 322.86,130.78 323.46,132.1 329.27,111.65 334.44,91.03 340.01,70.51 345.6,70.51 351.2,70.51 356.8,70.51 348.63,98.34 340.47,126.17 332.3,154 326.77,154 321.24,154 315.71,154 310.38,134.99 304.99,115.99 299.69,96.96 299.24,95.65 299.09,94.01 297.72,93.28 291.83,113.46 286.3,133.76 280.56,153.99 275.05,154.01 269.53,154 264.02,154 255.84,126.17 247.64,98.34 239.46,70.51 Z"
       id="path6" />
  </g>
</svg>
